<?xml version="1.0" encoding="UTF-8"?>
<svg width="100pt" height="100pt" version="1.1" viewBox="0 0 100 100" xmlns="http://www.w3.org/2000/svg">
 <g>
  <path d="m70 18h-40c-6.6289 0-12 5.3711-12 12v52h64v-52c0-6.6289-5.3711-12-12-12zm4 56h-48v-44c0-2.2109 1.7891-4 4-4h40c1.0625 0 2.0781 0.42188 2.8281 1.1719s1.1719 1.7656 1.1719 2.8281z"/>
  <path d="m58 34c0 5.332-8 5.332-8 0s8-5.332 8 0"/>
  <path d="m70 34c0 5.332-8 5.332-8 0s8-5.332 8 0"/>
  <path d="m32 62c0 3.3125 2.6875 6 6 6h24c3.3125 0 6-2.6875 6-6v-20h-36zm8-12h20v10h-20z"/>
 </g>
</svg>
